# xmcd CD database file
#
# Track frame offsets:
#	150
#	10982
#	20970
#	34317
#	45642
#	56662
#	66187
#	75830
#	86805
#	99525
#
# Disc length: 1431 seconds
#
# Revision: 2
# Processed by: cddbd v1.5.2PL0 Copyright (c) Steve Scherf et al.
# Submitted via: CDex 1.70beta2
#
DISCID=7e05950a
DTITLE=Various Artist - Golden POPS １９６４年のヒットソング Part 05 - 43
DYEAR=1964
DGENRE=Pop
TTITLE0=ドゥ・ワ・ディディ・ディディ - マンフレッド・マン
TTITLE1=ピンと針 - サーチャーズ
TTITLE2=ハヴ・アイ・ザ・ライト - ハニーカムズ
TTITLE3=G.T.O.でぶっとばせ - ロニー＆デイトナス
TTITLE4=タバコ・ロード - ナッシュヴィル・ティーンズ
TTITLE5=リトル・ホンダ - ホンデルズ
TTITLE6=アウト・オブ・リミッツ - マーケッツ
TTITLE7=パサディナのおばあちゃん - ジャン＆ディーン
TTITLE8=ドント・ウォリー・ベイビー - ビーチ・ボーイズ
TTITLE9=ヒッピー・ヒッピー・シェイク - スウィンギング・ブルー・ジーンズ
EXTD=YEAR: 1964
EXTT0=
EXTT1=
EXTT2=
EXTT3=
EXTT4=
EXTT5=
EXTT6=
EXTT7=
EXTT8=
EXTT9=
PLAYORDER=
